<svg width="24" height="26" viewBox="0 0 24 26" fill="none" xmlns="http://www.w3.org/2000/svg">
<path d="M12 1.625C13.0774 1.625 14.1108 2.05301 14.8726 2.81488C15.6345 3.57675 16.0625 4.61006 16.0625 5.6875V6.5H7.9375V5.6875C7.9375 4.61006 8.36551 3.57675 9.12738 2.81488C9.88925 2.05301 10.9226 1.625 12 1.625ZM17.6875 6.5V5.6875C17.6875 4.17908 17.0883 2.73244 16.0217 1.66583C14.9551 0.599217 13.5084 0 12 0C10.4916 0 9.04494 0.599217 7.97833 1.66583C6.91172 2.73244 6.3125 4.17908 6.3125 5.6875V6.5H0.625V22.75C0.625 23.612 0.96741 24.4386 1.5769 25.0481C2.1864 25.6576 3.01305 26 3.875 26H20.125C20.987 26 21.8136 25.6576 22.4231 25.0481C23.0326 24.4386 23.375 23.612 23.375 22.75V6.5H17.6875ZM2.25 8.125H21.75V22.75C21.75 23.181 21.5788 23.5943 21.274 23.899C20.9693 24.2038 20.556 24.375 20.125 24.375H3.875C3.44402 24.375 3.0307 24.2038 2.72595 23.899C2.4212 23.5943 2.25 23.181 2.25 22.75V8.125Z" fill="#8F68BF"/>
</svg>
