<svg width="113" height="52" viewBox="0 0 113 52" fill="none" xmlns="http://www.w3.org/2000/svg">
<path d="M33.7579 0H29.8491V3.91781H33.7579V0Z" fill="#8F68BF"/>
<path d="M27.3616 3.91779H25.9403H22.0314H20.9654H20.6101C18.1226 3.91779 15.9906 4.63011 14.5692 6.05477C13.5031 4.63011 11.3711 3.91779 8.88365 3.91779H0V52H3.90881V7.83559H8.5283C11.0157 7.83559 12.4371 9.26025 12.4371 11.7534V51.6438H16.3459V12.1096C16.3459 9.61642 17.7673 8.19176 20.2547 8.19176H20.6101H21.3208C23.8082 8.19176 25.2296 9.61642 25.2296 12.1096V52H29.1384V12.1096V3.91779H27.3616Z" fill="#8F68BF"/>
<path d="M38.022 52H33.7578V3.91779H37.6666V4.63011C38.7327 4.27395 40.154 3.91779 41.5754 3.91779H45.4842C50.8144 3.91779 53.3018 6.41094 53.3018 11.7534H49.7484C49.7484 9.26025 48.327 7.83559 45.8396 7.83559H41.9308C39.4433 7.83559 38.022 9.26025 38.022 11.7534V52Z" fill="#8F68BF"/>
<path d="M109.091 16.0274V12.1096C109.091 9.61642 107.67 8.19176 105.182 8.19176H95.2327V3.91779H105.182C110.513 3.91779 113 6.41094 113 11.7534V51.6438H100.918C95.588 51.6438 93.1006 49.1507 93.1006 43.8082V23.863C93.1006 18.5205 95.588 16.0274 100.918 16.0274H109.091ZM109.091 19.9452H101.274C98.7861 19.9452 97.3647 21.3698 97.3647 23.863V43.8082C97.3647 46.3013 98.7861 47.726 101.274 47.726H109.091V19.9452Z" fill="#8F68BF"/>
<path d="M81.7297 3.91779H72.846H69.6479H66.0945H65.7391H55.7894V7.83559H65.7391C68.2265 7.83559 69.6479 9.26025 69.6479 11.7534V15.6712H61.8303C56.5001 15.6712 54.0127 18.1644 54.0127 23.5068V43.452C54.0127 48.7945 56.5001 51.2876 61.8303 51.2876H69.6479H73.5567V12.1096V7.83559H81.7297C84.2171 7.83559 85.6385 9.26025 85.6385 11.7534V51.6438H89.5473V12.1096C89.9026 6.7671 87.0599 3.91779 81.7297 3.91779ZM70.0033 48.0822H62.1857C59.6982 48.0822 58.2768 46.6575 58.2768 44.1644V23.863C58.2768 21.3698 59.6982 19.9452 62.1857 19.9452H70.0033V48.0822Z" fill="#8F68BF"/>
</svg>
