<svg width="113" height="52" viewBox="0 0 113 52" fill="none" xmlns="http://www.w3.org/2000/svg">
<path d="M33.7579 0H29.8491V3.91781H33.7579V0Z" fill="#2A005C"/>
<path d="M27.3616 3.91772H25.9403H22.0314H20.9654H20.6101C18.1226 3.91772 15.9906 4.63005 14.5692 6.05471C13.5031 4.63005 11.3711 3.91772 8.88365 3.91772H0V51.9999H3.90881V7.83553H8.5283C11.0157 7.83553 12.4371 9.26019 12.4371 11.7533V51.6437H16.3459V12.1095C16.3459 9.61636 17.7673 8.1917 20.2547 8.1917H20.6101H21.3208C23.8082 8.1917 25.2296 9.61636 25.2296 12.1095V51.9999H29.1384V12.1095V3.91772H27.3616Z" fill="#2A005C"/>
<path d="M38.022 51.9999H33.7578V3.91772H37.6666V4.63005C38.7327 4.27389 40.154 3.91772 41.5754 3.91772H45.4842C50.8144 3.91772 53.3018 6.41087 53.3018 11.7533H49.7484C49.7484 9.26019 48.327 7.83553 45.8396 7.83553H41.9308C39.4433 7.83553 38.022 9.26019 38.022 11.7533V51.9999Z" fill="#2A005C"/>
<path d="M109.091 16.0273V12.1095C109.091 9.61636 107.67 8.1917 105.182 8.1917H95.2327V3.91772H105.182C110.513 3.91772 113 6.41087 113 11.7533V51.6437H100.918C95.588 51.6437 93.1006 49.1506 93.1006 43.8081V23.8629C93.1006 18.5205 95.588 16.0273 100.918 16.0273H109.091ZM109.091 19.9451H101.274C98.7861 19.9451 97.3647 21.3698 97.3647 23.8629V43.8081C97.3647 46.3013 98.7861 47.7259 101.274 47.7259H109.091V19.9451Z" fill="#2A005C"/>
<path d="M81.7297 3.91772H72.846H69.6479H66.0945H65.7391H55.7894V7.83553H65.7391C68.2265 7.83553 69.6479 9.26019 69.6479 11.7533V15.6712H61.8303C56.5001 15.6712 54.0127 18.1643 54.0127 23.5068V43.452C54.0127 48.7944 56.5001 51.2876 61.8303 51.2876H69.6479H73.5567V12.1095V7.83553H81.7297C84.2171 7.83553 85.6385 9.26019 85.6385 11.7533V51.6437H89.5473V12.1095C89.9026 6.76704 87.0599 3.91772 81.7297 3.91772ZM70.0033 48.0821H62.1857C59.6982 48.0821 58.2768 46.6574 58.2768 44.1643V23.8629C58.2768 21.3698 59.6982 19.9451 62.1857 19.9451H70.0033V48.0821Z" fill="#2A005C"/>
</svg>
