<svg width="24" height="24" viewBox="0 0 24 24" fill="none" xmlns="http://www.w3.org/2000/svg">
<path d="M21.375 22.092H21.4754L21.475 21.9916C21.473 21.4761 21.1776 19.9713 19.888 18.5956C18.6437 17.2683 16.315 15.9 12 15.9C7.68503 15.9 5.35635 17.2683 4.11205 18.5956C2.82226 19.9714 2.52893 21.4761 2.525 21.9912L2.52423 22.092H2.625H21.375ZM15.9045 10.1742C14.8678 11.2801 13.4632 11.9 12 11.9C10.5368 11.9 9.13219 11.2801 8.09548 10.1742C7.05856 9.0682 6.475 7.56679 6.475 6C6.475 4.43321 7.05856 2.9318 8.09548 1.82575C9.13219 0.719929 10.5368 0.1 12 0.1C13.4632 0.1 14.8678 0.719929 15.9045 1.82575C16.9414 2.9318 17.525 4.43321 17.525 6C17.525 7.56679 16.9414 9.0682 15.9045 10.1742ZM14.7246 8.89682C15.4458 8.1275 15.85 7.08538 15.85 6C15.85 4.91462 15.4458 3.8725 14.7246 3.10318C14.0032 2.33364 13.0232 1.9 12 1.9C10.9768 1.9 9.99684 2.33364 9.2754 3.10318C8.55416 3.8725 8.15 4.91462 8.15 6C8.15 7.08538 8.55416 8.1275 9.2754 8.89682C9.99684 9.66636 10.9768 10.1 12 10.1C13.0232 10.1 14.0032 9.66636 14.7246 8.89682ZM23.15 22C23.15 22.4838 23.0368 22.8399 22.8722 23.1033C22.7074 23.3669 22.4875 23.5433 22.2654 23.6618C22.0429 23.7805 21.8192 23.8403 21.6505 23.8703C21.5663 23.8853 21.4964 23.8927 21.448 23.8964C21.4238 23.8982 21.405 23.8991 21.3925 23.8996L21.3787 23.9L21.3755 23.9L21.3749 23.9H2.62508L2.62449 23.9L2.62134 23.9L2.6075 23.8996C2.59502 23.8991 2.57623 23.8982 2.55203 23.8964C2.5036 23.8927 2.4337 23.8853 2.34953 23.8703C2.18076 23.8403 1.95711 23.7805 1.73456 23.6618C1.51252 23.5433 1.29257 23.3669 1.12777 23.1033C0.963174 22.8399 0.85 22.4838 0.85 22C0.85 21.0237 1.31021 19.0487 2.93233 17.3184C4.55112 15.5917 7.33554 14.1 12 14.1C16.6645 14.1 19.4489 15.5917 21.0677 17.3184C22.6898 19.0487 23.15 21.0237 23.15 22Z" fill="#8F68BF" stroke="white" stroke-width="0.2"/>
</svg>
