<svg width="90" height="90" viewBox="0 0 90 90" fill="none" xmlns="http://www.w3.org/2000/svg">
<circle cx="45" cy="45" r="43.5" stroke="#2A005C" stroke-width="3"/>
<path d="M56.0314 70C55.6721 70 55.3151 69.8786 55.0091 69.6414L43.4429 60.6796L37.2393 65.7783C36.7528 66.178 36.1256 66.2787 35.5608 66.0479C34.9965 65.8167 34.5681 65.2828 34.4151 64.6208L31.3002 51.1369L20.1705 46.2758C19.4698 45.9695 19.0051 45.2039 19 44.3469C18.9949 43.4901 19.4504 42.7171 20.1477 42.4002L62.4669 23.1652C62.659 23.072 62.8622 23.0182 63.0671 23.0038C63.1405 22.9988 63.214 22.9988 63.2871 23.0035C63.7115 23.0323 64.1283 23.2298 64.4537 23.5942C64.4874 23.6319 64.5194 23.6705 64.5498 23.7107C64.8192 24.0623 64.9673 24.4911 64.9952 24.9278C65.0021 25.0377 65.0017 25.1489 64.9931 25.2601C64.9873 25.3394 64.9773 25.4184 64.9632 25.4969L57.82 68.3094C57.7051 68.9972 57.2953 69.5729 56.7292 69.8411C56.5046 69.9475 56.2673 70 56.0314 70ZM44.4584 56.4399L54.7612 64.4225L60.3193 31.1096L40.2446 53.1749L44.4098 56.4024C44.4265 56.4143 44.4426 56.427 44.4584 56.4399ZM35.8817 54.6647L37.2612 60.6354L40.2333 58.1925L36.3415 55.177C36.1606 55.0371 36.0057 54.863 35.8817 54.6647ZM25.8309 44.294L33.4731 47.6316C34.0205 47.8707 34.4338 48.3965 34.5833 49.0436L35.5525 53.2393C35.5969 52.7554 35.7889 52.3 36.101 51.9569L55.2293 30.9321L25.8309 44.294Z" fill="#2A005C"/>
</svg>
