<svg width="90" height="90" viewBox="0 0 90 90" fill="none" xmlns="http://www.w3.org/2000/svg">
<circle cx="45" cy="45" r="43.5" stroke="#2A005C" stroke-width="3"/>
<path d="M71.3751 55.8653C70.0962 54.3064 68.6443 52.8999 67.2386 51.5519C66.7431 51.0714 66.2361 50.5908 65.7406 50.0985C65.0839 49.4421 64.7612 48.9733 64.7267 48.6332C64.6921 48.2934 64.9226 47.7894 65.4411 47.0509C66.2246 45.9374 67.0541 44.8239 67.8608 43.7455C68.5752 42.7843 69.3127 41.7997 70.0271 40.8034L70.1884 40.5807C71.571 38.635 72.9998 36.6189 73.7604 34.1691C73.9794 33.4658 74.2098 32.4226 73.6567 31.5084C73.1037 30.5941 72.0895 30.3245 71.3751 30.1956C71.0296 30.137 70.6953 30.1252 70.3843 30.1252L61.4196 30.1135C59.8641 30.0901 58.7925 30.8402 58.2048 32.3406C57.7323 33.5362 57.1792 34.931 56.5456 36.2438C55.3126 38.7873 53.7571 41.7177 51.4986 44.1557L51.3949 44.2612C51.245 44.4253 50.9915 44.7066 50.8649 44.7652C50.6228 44.6129 50.3347 43.7103 50.3464 43.2415C50.3464 43.2297 50.3464 43.218 50.3464 43.2063L50.3347 32.6688C50.3347 32.6102 50.3347 32.5633 50.3233 32.5047C50.1274 31.0044 49.7356 29.4923 47.3965 29.0234C47.3158 29.0117 47.2467 29 47.1661 29H37.8441C36.0928 29 35.1594 29.8205 34.4219 30.6996C34.203 30.9575 33.6384 31.649 33.9265 32.4812C34.2261 33.3252 35.1018 33.501 35.3899 33.5596C36.4038 33.7589 36.9338 34.3449 37.0951 35.4585C37.4178 37.6269 37.4524 39.9478 37.2219 42.7609C37.1528 43.5111 37.0377 44.0854 36.8302 44.566C36.7725 44.6949 36.7265 44.7769 36.6919 44.8239C36.6343 44.8004 36.5537 44.7652 36.4384 44.6832C35.724 44.1909 35.1824 43.4173 34.6638 42.6671C32.5899 39.6782 30.8385 36.3845 29.3174 32.5867C28.6952 31.0278 27.5199 30.1604 26.0104 30.137C23.1412 30.0901 20.4795 30.0901 17.8869 30.137C16.6655 30.1604 15.8128 30.5472 15.3404 31.2974C14.868 32.0476 14.891 33.0087 15.3865 34.1457C18.9816 42.2803 22.2425 48.1879 25.9643 53.3218C28.5915 56.9321 31.2302 59.4404 34.2721 61.222C37.4754 63.0858 41.082 64 45.2648 64C45.7373 64 46.2213 63.9883 46.7167 63.9648C49.2977 63.8476 50.3464 62.8044 50.4615 60.2375C50.5306 58.8895 50.669 57.7877 51.1875 56.8383C51.3258 56.5686 51.4986 56.3927 51.6253 56.3577C51.7635 56.3226 52.0056 56.4045 52.2706 56.5804C52.7546 56.9087 53.1809 57.3423 53.5266 57.729C53.8722 58.1158 54.2294 58.5262 54.5751 58.9129C55.301 59.7452 56.0616 60.6008 56.8566 61.4214C58.6426 63.2732 60.7167 64.129 62.9981 63.9531H71.2023C71.2254 63.9531 71.26 63.9531 71.2831 63.9531C72.2279 63.8945 73.046 63.3553 73.53 62.488C74.1062 61.4448 74.0945 60.1202 73.5069 58.9598C72.8962 57.7759 72.0895 56.7328 71.3751 55.8653ZM71.4904 61.351C71.3751 61.5502 71.2369 61.5971 71.1678 61.5971H62.9636C62.929 61.5971 62.8945 61.5971 62.8714 61.5971C61.2583 61.7378 59.8872 61.1517 58.5504 59.7802C57.8014 58.995 57.0641 58.1627 56.3497 57.354C56.004 56.9554 55.6468 56.5452 55.2781 56.1467C54.8287 55.6544 54.2756 55.0801 53.5612 54.6112C52.501 53.9079 51.6139 53.9314 51.0608 54.0721C50.5192 54.2126 49.7356 54.6113 49.1364 55.7131C48.3645 57.143 48.1915 58.6902 48.1224 60.1554C48.0878 61.0462 47.938 61.2807 47.8689 61.3393C47.7883 61.4214 47.5117 61.5502 46.613 61.5971C42.2573 61.8081 38.6047 61.011 35.4475 59.1709C32.6936 57.5649 30.2854 55.2675 27.8655 51.9269C24.2474 46.9454 21.0672 41.1668 17.5412 33.1963C17.4145 32.9032 17.3684 32.7274 17.3684 32.6336C17.4606 32.5985 17.6334 32.5633 17.9445 32.5633C20.5025 32.5164 23.1412 32.5164 25.9873 32.5633C26.3791 32.575 26.817 32.6922 27.1511 33.5245C28.7413 37.498 30.5733 40.9441 32.7512 44.0854C33.3272 44.9176 34.0533 45.9491 35.1133 46.6876C36.0812 47.3673 36.8763 47.3323 37.3603 47.1916C37.8557 47.0509 38.5356 46.6407 38.9965 45.5389C39.296 44.8238 39.469 44.0268 39.561 43.007C39.8145 39.9946 39.7685 37.498 39.4228 35.142C39.1809 33.4541 38.3166 32.2351 36.9684 31.6139C37.2105 31.4849 37.4754 31.438 37.8557 31.438H47.0623C47.5808 31.5553 47.6846 31.6959 47.7192 31.7428C47.8689 31.9421 47.9496 32.4226 48.0073 32.7977L48.0187 43.2415C47.9956 44.2378 48.4796 46.4648 50.1043 47.0744C50.1158 47.0744 50.1274 47.0861 50.1505 47.0861C51.6368 47.5784 52.6163 46.5117 53.1347 45.9374L53.2269 45.8319C55.7044 43.1594 57.3751 40.0298 58.6772 37.3339C59.357 35.939 59.9332 34.4973 60.4172 33.2549C60.6591 32.6336 60.878 32.5281 61.408 32.5398C61.4196 32.5398 61.4196 32.5398 61.4311 32.5398L70.4074 32.5516C70.6147 32.5516 70.8337 32.5516 71.0065 32.5867C71.4328 32.6571 71.6057 32.7508 71.6632 32.786C71.6749 32.8563 71.6632 33.0556 71.5365 33.4658C70.8797 35.5522 69.6237 37.3222 68.2987 39.1976L68.1374 39.4203C67.4459 40.3932 66.7086 41.3778 66.0056 42.3272C65.1876 43.4173 64.3464 44.5542 63.5512 45.6912C61.846 48.1175 61.9957 49.7233 64.1274 51.8333C64.6345 52.3373 65.1414 52.8296 65.6484 53.3101C67.0658 54.6699 68.4024 55.9591 69.5891 57.4126C70.2115 58.1744 70.9259 59.1005 71.4328 60.1085C71.6978 60.6243 71.6287 61.1048 71.4904 61.351Z" fill="#2A005C" stroke="#2A005C" stroke-width="1.5" stroke-miterlimit="10"/>
</svg>
