<svg width="90" height="90" viewBox="0 0 90 90" fill="none" xmlns="http://www.w3.org/2000/svg">
<circle cx="45" cy="45" r="43.5" stroke="#2A005C" stroke-width="3"/>
<path fill-rule="evenodd" clip-rule="evenodd" d="M25.814 44.4999C25.814 33.5463 34.6642 24.6667 45.5814 24.6667C56.4986 24.6667 65.3488 33.5463 65.3488 44.4999C65.3488 55.4535 56.4986 64.3332 45.5814 64.3332C41.6926 64.3332 38.0727 63.209 35.0186 61.2675C34.4502 60.9063 33.7537 60.8097 33.1089 61.0026L26.4132 63.0077L28.9343 57.089C29.2322 56.3894 29.1716 55.5882 28.7718 54.9418C26.897 51.9106 25.814 48.3357 25.814 44.4999ZM45.5814 20C32.0954 20 21.1628 30.969 21.1628 44.4999C21.1628 48.7888 22.2632 52.826 24.1969 56.3362L20.1871 65.7496C19.8327 66.5819 19.9898 67.5446 20.5903 68.2199C21.1908 68.8954 22.1263 69.1614 22.9907 68.9024L33.4544 65.7694C37.029 67.8251 41.1714 68.9999 45.5814 68.9999C59.0674 68.9999 70 58.0309 70 44.4999C70 30.969 59.0674 20 45.5814 20ZM50.9128 49.5922L47.8565 51.7522C46.4251 50.9341 44.8426 49.7922 43.2551 48.1994C41.6049 46.5437 40.3814 44.8343 39.4793 43.2663L41.4216 41.6122C42.2551 40.9024 42.4833 39.7057 41.9698 38.7373L39.495 34.0706C39.1617 33.4422 38.5608 33.0008 37.8631 32.8719C37.1654 32.743 36.4472 32.9406 35.9127 33.4087L35.179 34.0512C33.4145 35.5963 32.3709 38.1353 33.2358 40.7062C34.1325 43.3713 36.0461 47.5659 39.9663 51.4992C44.184 55.731 48.4681 57.3974 50.9735 58.0447C52.9921 58.5659 54.9023 57.8671 56.2484 56.7667L57.624 55.6421C58.2123 55.1612 58.5298 54.4222 58.4744 53.6627C58.4188 52.9032 57.9974 52.2186 57.3453 51.8287L53.4423 49.4954C52.654 49.0243 51.6633 49.0621 50.9128 49.5922Z" fill="#2A005C"/>
</svg>
