<svg width="26" height="25" viewBox="0 0 26 25" fill="none" xmlns="http://www.w3.org/2000/svg">
<path d="M12.9998 4.46558L11.8347 3.26795C9.09983 0.456704 4.08508 1.42683 2.27483 4.9612C1.42495 6.62358 1.2332 9.02371 2.78508 12.0868C4.28008 15.0362 7.39033 18.569 12.9998 22.417C18.6093 18.569 21.718 15.0362 23.2146 12.0868C24.7665 9.02208 24.5763 6.62358 23.7248 4.9612C21.9146 1.42683 16.8998 0.455079 14.165 3.26633L12.9998 4.46558ZM12.9998 24.3751C-11.9163 7.91058 5.3282 -4.93992 12.7138 1.85745C12.8113 1.94737 12.9067 2.04 12.9998 2.13533C13.0914 2.03939 13.1868 1.94723 13.2858 1.85908C20.6698 -4.94317 37.916 7.90895 12.9998 24.3751Z" fill="#8F68BF"/>
</svg>
