<svg width="44" height="41" viewBox="0 0 44 41" fill="none" xmlns="http://www.w3.org/2000/svg">
<path d="M21.7947 7.4867L19.8413 5.47884C15.2562 0.76568 6.84878 2.39213 3.81383 8.31763C2.38899 11.1047 2.06751 15.1286 4.66928 20.264C7.1757 25.2087 12.3901 31.1315 21.7947 37.5828C31.1992 31.1315 36.4109 25.2087 38.9201 20.264C41.5218 15.1258 41.2031 11.1047 39.7755 8.31763C36.7406 2.39213 28.3332 0.762956 23.748 5.47612L21.7947 7.4867ZM21.7947 40.8657C-19.9781 13.2624 8.93292 -8.28195 21.3152 3.11409C21.4786 3.26484 21.6385 3.42013 21.7947 3.57995C21.9481 3.41912 22.1081 3.26461 22.2742 3.11681C34.6537 -8.2874 63.5674 13.2596 21.7947 40.8657Z" fill="#8F68BF"/>
</svg>
